HIERARCHY
ROOT Hips
{
	OFFSET 0.000000 121.760803 0.000000
	CHANNELS 6 Xposition Yposition Zposition Xrotation Yrotation Zrotation 
	JOINT Spine
	{
		OFFSET 0.072000 7.257294 -0.789700
		CHANNELS 3 Xrotation Yrotation Zrotation
		JOINT Spine1
		{
			OFFSET 0.000000 12.508769 -0.658067
			CHANNELS 3 Xrotation Yrotation Zrotation
			JOINT Spine1_split
			{
				OFFSET 0.000000 12.508769 -0.658067
				CHANNELS 3 Xrotation Yrotation Zrotation
				JOINT Spine2
				{
					OFFSET 0.000000 12.508769 -0.658067
					CHANNELS 3 Xrotation Yrotation Zrotation
					JOINT Neck
					{
						OFFSET 0.000000 14.033295 7.520400
						CHANNELS 3 Xrotation Yrotation Zrotation
						JOINT Head
						{
							OFFSET 0.000000 8.198502 5.703100
							CHANNELS 3 Xrotation Yrotation Zrotation
							JOINT HeadTop_End
							{
								OFFSET 0.000000 17.760803 13.332701
								CHANNELS 3 Xrotation Yrotation Zrotation
								End Site
								{
									OFFSET 0.000000 0.000000 0.000000
								}
							}
						}
					}
					JOINT LeftShoulder
					{
						OFFSET 6.292450 5.785301 -0.669000
						CHANNELS 3 Xrotation Yrotation Zrotation
						JOINT LeftShoulder_split
						{
							OFFSET 6.292450 5.785301 -0.669000
							CHANNELS 3 Xrotation Yrotation Zrotation
							JOINT LeftArm
							{
								OFFSET 13.907140 -6.093903 1.965100
								CHANNELS 3 Xrotation Yrotation Zrotation
								JOINT LeftForeArm
								{
									OFFSET 34.140198 0.000000 0.000000
									CHANNELS 3 Xrotation Yrotation Zrotation
									JOINT LeftHand
									{
										OFFSET 40.960209 0.000000 0.000000
										CHANNELS 3 Xrotation Yrotation Zrotation
										JOINT LeftHandThumb1
										{
											OFFSET 10.006996 -7.170425 9.573125
											CHANNELS 3 Xrotation Yrotation Zrotation
											JOINT LeftHandThumb2
											{
												OFFSET 1.835007 -1.059448 1.059443
												CHANNELS 3 Xrotation Yrotation Zrotation
												JOINT LeftHandThumb3
												{
													OFFSET 2.112267 -1.219513 1.219518
													CHANNELS 3 Xrotation Yrotation Zrotation
													JOINT LeftHandThumb4
													{
														OFFSET 4.843811 -2.796570 2.796576
														CHANNELS 3 Xrotation Yrotation Zrotation
														End Site
														{
															OFFSET 0.000000 0.000000 0.000000
														}
													}
												}
											}
										}
										JOINT LeftHandIndex1
										{
											OFFSET 18.389847 -0.922348 4.596882
											CHANNELS 3 Xrotation Yrotation Zrotation
											JOINT LeftHandIndex2
											{
												OFFSET 4.711273 0.000000 0.000000
												CHANNELS 3 Xrotation Yrotation Zrotation
												JOINT LeftHandIndex3
												{
													OFFSET 2.886131 0.000000 0.000000
													CHANNELS 3 Xrotation Yrotation Zrotation
													JOINT LeftHandIndex4
													{
														OFFSET 6.145912 0.000000 0.000000
														CHANNELS 3 Xrotation Yrotation Zrotation
														End Site
														{
															OFFSET 0.000000 0.000000 0.000000
														}
													}
												}
											}
										}
										JOINT LeftHandMiddle1
										{
											OFFSET 18.013008 0.000000 0.000000
											CHANNELS 3 Xrotation Yrotation Zrotation
											JOINT LeftHandMiddle2
											{
												OFFSET 4.946693 0.000000 0.000000
												CHANNELS 3 Xrotation Yrotation Zrotation
												JOINT LeftHandMiddle3
												{
													OFFSET 3.342232 0.000000 0.000000
													CHANNELS 3 Xrotation Yrotation Zrotation
													JOINT LeftHandMiddle4
													{
														OFFSET 4.461754 0.000000 0.000000
														CHANNELS 3 Xrotation Yrotation Zrotation
														End Site
														{
															OFFSET 0.000000 0.000000 0.000000
														}
													}
												}
											}
										}
										JOINT LeftHandRing1
										{
											OFFSET 15.849892 -0.102921 -4.126150
											CHANNELS 3 Xrotation Yrotation Zrotation
											JOINT LeftHandRing2
											{
												OFFSET 3.527054 0.000000 0.000000
												CHANNELS 3 Xrotation Yrotation Zrotation
												JOINT LeftHandRing3
												{
													OFFSET 2.961098 0.000000 0.000000
													CHANNELS 3 Xrotation Yrotation Zrotation
													JOINT LeftHandRing4
													{
														OFFSET 4.927200 0.000000 0.000000
														CHANNELS 3 Xrotation Yrotation Zrotation
														End Site
														{
															OFFSET 0.000000 0.000000 0.000000
														}
													}
												}
											}
										}
										JOINT LeftHandPinky1
										{
											OFFSET 12.791824 -0.832031 -6.799156
											CHANNELS 3 Xrotation Yrotation Zrotation
											JOINT LeftHandPinky2
											{
												OFFSET 3.327133 0.000000 0.000000
												CHANNELS 3 Xrotation Yrotation Zrotation
												JOINT LeftHandPinky3
												{
													OFFSET 3.014900 0.000000 0.000000
													CHANNELS 3 Xrotation Yrotation Zrotation
													JOINT LeftHandPinky4
													{
														OFFSET 5.847786 0.000000 0.000000
														CHANNELS 3 Xrotation Yrotation Zrotation
														End Site
														{
															OFFSET 0.000000 0.000000 0.000000
														}
													}
												}
											}
										}
									}
								}
							}
						}
					}
					JOINT RightShoulder
					{
						OFFSET -6.292450 5.785301 -0.669000
						CHANNELS 3 Xrotation Yrotation Zrotation
						JOINT RightShoulder_split
						{
							OFFSET -6.292450 5.785301 -0.669000
							CHANNELS 3 Xrotation Yrotation Zrotation
							JOINT RightArm
							{
								OFFSET -13.907140 -6.093903 1.965100
								CHANNELS 3 Xrotation Yrotation Zrotation
								JOINT RightForeArm
								{
									OFFSET -34.140198 0.000000 0.000000
									CHANNELS 3 Xrotation Yrotation Zrotation
									JOINT RightHand
									{
										OFFSET -40.960209 0.000000 0.000000
										CHANNELS 3 Xrotation Yrotation Zrotation
										JOINT RightHandThumb1
										{
											OFFSET -10.007050 -7.170456 9.573117
											CHANNELS 3 Xrotation Yrotation Zrotation
											JOINT RightHandThumb2
											{
												OFFSET -1.835007 -1.059448 1.059443
												CHANNELS 3 Xrotation Yrotation Zrotation
												JOINT RightHandThumb3
												{
													OFFSET -2.112267 -1.219513 1.219518
													CHANNELS 3 Xrotation Yrotation Zrotation
													JOINT RightHandThumb4
													{
														OFFSET -4.843834 -2.796585 2.796590
														CHANNELS 3 Xrotation Yrotation Zrotation
														End Site
														{
															OFFSET 0.000000 0.000000 0.000000
														}
													}
												}
											}
										}
										JOINT RightHandIndex1
										{
											OFFSET -18.389870 -0.922424 4.596786
											CHANNELS 3 Xrotation Yrotation Zrotation
											JOINT RightHandIndex2
											{
												OFFSET -4.711273 0.000000 0.000000
												CHANNELS 3 Xrotation Yrotation Zrotation
												JOINT RightHandIndex3
												{
													OFFSET -2.886131 0.000000 0.000000
													CHANNELS 3 Xrotation Yrotation Zrotation
													JOINT RightHandIndex4
													{
														OFFSET -6.145920 0.000000 0.000000
														CHANNELS 3 Xrotation Yrotation Zrotation
														End Site
														{
															OFFSET 0.000000 0.000000 0.000000
														}
													}
												}
											}
										}
										JOINT RightHandMiddle1
										{
											OFFSET -18.013008 0.000000 0.000000
											CHANNELS 3 Xrotation Yrotation Zrotation
											JOINT RightHandMiddle2
											{
												OFFSET -4.946693 0.000000 0.000000
												CHANNELS 3 Xrotation Yrotation Zrotation
												JOINT RightHandMiddle3
												{
													OFFSET -3.342232 0.000000 0.000000
													CHANNELS 3 Xrotation Yrotation Zrotation
													JOINT RightHandMiddle4
													{
														OFFSET -4.461754 0.000000 0.000000
														CHANNELS 3 Xrotation Yrotation Zrotation
														End Site
														{
															OFFSET 0.000000 0.000000 0.000000
														}
													}
												}
											}
										}
										JOINT RightHandRing1
										{
											OFFSET -15.849876 -0.102936 -4.126237
											CHANNELS 3 Xrotation Yrotation Zrotation
											JOINT RightHandRing2
											{
												OFFSET -3.527054 0.000000 0.000000
												CHANNELS 3 Xrotation Yrotation Zrotation
												JOINT RightHandRing3
												{
													OFFSET -2.961098 0.000000 0.000000
													CHANNELS 3 Xrotation Yrotation Zrotation
													JOINT RightHandRing4
													{
														OFFSET -4.927200 0.000000 0.000000
														CHANNELS 3 Xrotation Yrotation Zrotation
														End Site
														{
															OFFSET 0.000000 0.000000 0.000000
														}
													}
												}
											}
										}
										JOINT RightHandPinky1
										{
											OFFSET -12.791786 -0.832077 -6.799222
											CHANNELS 3 Xrotation Yrotation Zrotation
											JOINT RightHandPinky2
											{
												OFFSET -3.327133 0.000000 0.000000
												CHANNELS 3 Xrotation Yrotation Zrotation
												JOINT RightHandPinky3
												{
													OFFSET -3.014900 0.000000 0.000000
													CHANNELS 3 Xrotation Yrotation Zrotation
													JOINT RightHandPinky4
													{
														OFFSET -5.847786 0.000000 0.000000
														CHANNELS 3 Xrotation Yrotation Zrotation
														End Site
														{
															OFFSET 0.000000 0.000000 0.000000
														}
													}
												}
											}
										}
									}
								}
							}
						}
					}
				}
			}
		}
	}
	JOINT LeftUpLeg
	{
		OFFSET 13.026900 -6.336304 -1.092800
		CHANNELS 3 Xrotation Yrotation Zrotation
		JOINT LeftLeg
		{
			OFFSET 0.524474 -46.096886 9.782700
			CHANNELS 3 Xrotation Yrotation Zrotation
			JOINT LeftFoot
			{
				OFFSET -0.524474 -53.427422 -12.948200
				CHANNELS 3 Xrotation Yrotation Zrotation
				JOINT LeftToeBase
				{
					OFFSET 0.192200 -14.009700 16.364100
					CHANNELS 3 Xrotation Yrotation Zrotation
					JOINT LeftToe_End
					{
						OFFSET -1.784700 -0.561700 9.474800
						CHANNELS 3 Xrotation Yrotation Zrotation
						End Site
						{
							OFFSET 0.000000 0.000000 0.000000
						}
					}
				}
			}
		}
	}
	JOINT RightUpLeg
	{
		OFFSET -12.883000 -6.336304 -1.092800
		CHANNELS 3 Xrotation Yrotation Zrotation
		JOINT RightLeg
		{
			OFFSET -0.524587 -46.096825 9.782800
			CHANNELS 3 Xrotation Yrotation Zrotation
			JOINT RightFoot
			{
				OFFSET 0.524587 -53.427383 -12.948300
				CHANNELS 3 Xrotation Yrotation Zrotation
				JOINT RightToeBase
				{
					OFFSET -0.192200 -14.009700 16.364100
					CHANNELS 3 Xrotation Yrotation Zrotation
					JOINT RightToe_End
					{
						OFFSET 1.784700 -0.561700 9.474800
						CHANNELS 3 Xrotation Yrotation Zrotation
						End Site
						{
							OFFSET 0.000000 0.000000 0.000000
						}
					}
				}
			}
		}
	}
}
MOTION
Frames: 4
Frame Time: 0.016667
5.595554 53.740295 -2.666511 1.229803 -27.468996 9.843144 2.896881 1.941436 -6.398749 2.227982 -1.286562 -3.027763 0.000000 0.000000 0.000000 2.233814 -1.285670 -3.025123 -3.962407 3.288523 2.946571 -0.115027 19.920378 2.691781 0.000000 -0.000000 -0.000000 0.452719 1.693813 1.739612 0.000000 0.000000 0.000000 -1.798690 -11.700859 -58.798660 0.000372 -83.306752 0.000386 -56.402906 17.147782 27.573270 -1.540052 3.690184 6.142359 3.939062 7.948708 0.746803 -0.579467 1.575004 2.538708 0.000000 -0.000002 -0.000000 1.016538 3.605842 -31.478686 1.016530 3.605848 -31.478709 0.193864 1.625531 -13.600719 0.000002 -0.000000 0.000000 1.299288 4.030461 -35.722880 1.301536 4.033596 -35.755002 0.332607 2.118109 -17.846581 -0.000004 0.000001 -0.000001 1.751609 4.592882 -41.733682 1.751601 4.592893 -41.733696 0.588567 2.790124 -23.818383 -0.000000 -0.000002 0.000000 4.911439 7.752516 -44.887877 2.046422 0.814391 -45.446976 0.761362 3.152216 -27.151600 -0.000002 -0.000000 -0.000001 5.136812 17.382609 7.477154 0.000000 0.000000 0.000000 14.034109 22.826745 31.042295 -0.000043 121.743969 0.000043 2.429572 -25.805980 9.048804 -1.849254 -3.581797 -6.586141 4.637190 -8.634111 -0.225407 -1.273762 0.137315 -2.094867 -0.000001 -0.000001 0.000003 0.013954 -0.441472 3.625096 0.176782 -1.560952 12.920988 0.044320 -0.785454 6.459291 0.000003 0.000004 -0.000000 0.522937 -2.650092 22.321564 0.387260 -2.292323 19.175942 0.044327 -0.785470 6.459296 -0.000000 0.000005 -0.000001 0.723842 -3.093979 26.329763 0.387260 -2.292331 19.175947 0.044350 -0.785462 6.459274 0.000001 -0.000004 -0.000000 1.074263 -3.717929 32.222893 0.387275 -2.292318 19.175934 0.044320 -0.785455 6.459294 -0.000000 0.000002 -0.000000 -82.683285 -12.472237 48.300625 70.319898 10.221066 -5.137300 32.495339 -1.849056 -10.564870 -0.000661 0.000011 0.000001 0.000000 0.000003 0.000000 -18.312977 -0.459599 -18.183763 103.710501 10.080522 -0.726497 24.261300 2.984708 24.399720 31.894443 -0.171456 -3.666767 0.000001 -0.000003 -0.000001 
5.588091 53.747925 -2.665130 1.263138 -27.435015 9.856474 2.893811 1.932614 -6.410883 2.224217 -1.288403 -3.033396 0.000000 0.000000 0.000000 2.230124 -1.286487 -3.030591 -3.922926 3.288506 2.958156 -0.049251 19.944321 2.683307 0.000000 0.000000 0.000000 0.482384 1.632740 1.765588 0.000000 0.000000 0.000000 -1.851253 -11.677337 -58.833180 0.000141 -83.371133 0.000123 -56.190727 17.156018 27.669296 -1.540051 3.690177 6.142360 3.939061 7.948712 0.746805 -0.579468 1.575001 2.538708 0.000000 0.000003 0.000000 1.016539 3.605836 -31.478689 1.016530 3.605843 -31.478713 0.193867 1.625529 -13.600718 -0.000003 -0.000000 -0.000000 1.299290 4.030455 -35.722876 1.301540 4.033591 -35.755002 0.332609 2.118110 -17.846579 -0.000001 0.000000 -0.000000 1.751611 4.592873 -41.733682 1.751601 4.592893 -41.733699 0.588570 2.790123 -23.818383 -0.000001 0.000000 -0.000001 4.911440 7.752511 -44.887873 2.046422 0.814393 -45.446979 0.761366 3.152214 -27.151597 -0.000001 0.000002 -0.000002 5.151215 17.427064 7.474813 0.000000 0.000000 0.000000 14.053417 22.660442 31.058130 0.000027 121.812353 -0.000012 2.471123 -25.904531 9.104247 -1.849254 -3.581796 -6.586142 4.637193 -8.634115 -0.225408 -1.273763 0.137313 -2.094866 0.000002 0.000000 0.000001 0.013966 -0.441478 3.625081 0.176779 -1.560946 12.920986 0.044312 -0.785459 6.459286 0.000001 -0.000001 0.000002 0.522928 -2.650098 22.321550 0.387279 -2.292327 19.175930 0.044333 -0.785454 6.459290 0.000000 -0.000003 0.000000 0.723858 -3.093989 26.329736 0.387261 -2.292325 19.175944 0.044319 -0.785438 6.459290 0.000000 0.000001 -0.000000 1.074282 -3.717934 32.222855 0.387260 -2.292304 19.175941 0.044341 -0.785463 6.459301 0.000000 0.000004 0.000000 -82.682732 -12.515628 48.270798 70.318546 10.245044 -5.184440 32.506373 -1.842387 -10.522399 -0.000651 0.000004 0.000002 -0.000000 0.000001 -0.000000 -18.395315 -0.447691 -18.182942 103.791821 9.981486 -0.700252 24.187387 2.957270 24.299282 31.812689 -0.174017 -3.693427 -0.000003 -0.000004 -0.000002 
5.579735 53.756470 -2.666876 1.291561 -27.403726 9.868144 2.895256 1.923624 -6.422660 2.223864 -1.290200 -3.038300 0.000000 0.000000 0.000000 2.230377 -1.288412 -3.035255 -3.886563 3.294395 2.964091 -0.011392 19.978525 2.670442 0.000001 -0.000000 -0.000000 0.506470 1.585648 1.768911 0.000000 0.000000 0.000000 -1.905213 -11.648059 -58.840604 0.000796 -83.445951 0.000820 -56.101620 17.119301 27.700845 -1.540052 3.690180 6.142360 3.939062 7.948714 0.746803 -0.579468 1.575004 2.538709 0.000000 -0.000001 -0.000000 1.016539 3.605840 -31.478689 1.016528 3.605847 -31.478709 0.193864 1.625529 -13.600718 0.000003 -0.000000 -0.000000 1.299289 4.030455 -35.722880 1.301540 4.033599 -35.755002 0.332611 2.118110 -17.846581 0.000003 0.000000 -0.000000 1.751611 4.592872 -41.733682 1.751604 4.592891 -41.733699 0.588566 2.790124 -23.818383 0.000003 0.000003 -0.000004 4.911441 7.752512 -44.887873 2.046427 0.814389 -45.446972 0.761366 3.152214 -27.151597 0.000003 0.000001 -0.000001 5.163597 17.463976 7.466052 0.000000 0.000000 0.000000 14.080612 22.520694 31.066818 0.000021 121.886638 -0.000003 2.595691 -26.024042 9.128059 -1.849250 -3.581796 -6.586143 4.637194 -8.634114 -0.225409 -1.273756 0.137312 -2.094860 0.000001 -0.000001 -0.000001 0.013954 -0.441479 3.625090 0.176772 -1.560960 12.920981 0.044330 -0.785464 6.459292 -0.000000 0.000001 -0.000000 0.522930 -2.650102 22.321543 0.387281 -2.292310 19.175937 0.044320 -0.785464 6.459291 -0.000000 0.000001 -0.000000 0.723843 -3.093998 26.329746 0.387276 -2.292331 19.175939 0.044327 -0.785460 6.459290 0.000001 0.000000 0.000000 1.074278 -3.717914 32.222855 0.387274 -2.292310 19.175935 0.044313 -0.785469 6.459298 -0.000000 0.000002 0.000000 -82.672746 -12.559044 48.240902 70.313273 10.272482 -5.230484 32.519316 -1.837556 -10.485291 -0.000666 -0.000002 -0.000001 0.000000 0.000003 -0.000000 -18.467397 -0.443703 -18.179875 103.861154 9.882915 -0.679470 24.120390 2.935620 24.222940 31.763088 -0.176849 -3.722473 -0.000003 -0.000001 -0.000001 
5.569551 53.766083 -2.672616 1.316212 -27.380038 9.880241 2.900717 1.913207 -6.434838 2.225576 -1.291795 -3.043521 0.000000 0.000000 0.000000 2.232482 -1.289741 -3.040206 -3.853552 3.304079 2.962690 -0.005855 20.019080 2.662787 0.000000 -0.000000 -0.000001 0.522520 1.557774 1.745667 0.000000 0.000000 0.000000 -1.958937 -11.606901 -58.821534 0.000235 -83.536786 0.000221 -56.009768 17.105218 27.723941 -1.540052 3.690182 6.142362 3.939061 7.948715 0.746803 -0.579467 1.575002 2.538707 -0.000000 -0.000002 -0.000000 1.016538 3.605837 -31.478689 1.016531 3.605843 -31.478709 0.193866 1.625528 -13.600717 -0.000002 -0.000000 -0.000000 1.299289 4.030456 -35.722883 1.301541 4.033593 -35.755002 0.332609 2.118110 -17.846579 -0.000001 -0.000000 0.000000 1.751612 4.592873 -41.733682 1.751605 4.592892 -41.733699 0.588569 2.790124 -23.818386 0.000001 0.000001 0.000000 4.911440 7.752513 -44.887873 2.046423 0.814391 -45.446979 0.761366 3.152215 -27.151597 0.000002 -0.000000 0.000001 5.172910 17.491983 7.451951 0.000000 0.000000 0.000000 14.105766 22.416227 31.064093 0.000022 121.951361 -0.000011 2.794221 -26.106455 9.140198 -1.849255 -3.581797 -6.586144 4.637189 -8.634116 -0.225402 -1.273763 0.137312 -2.094863 -0.000003 0.000001 -0.000002 0.013963 -0.441482 3.625079 0.176772 -1.560933 12.921004 0.044334 -0.785471 6.459287 0.000001 -0.000001 -0.000001 0.522939 -2.650098 22.321545 0.387271 -2.292312 19.175941 0.044342 -0.785460 6.459283 0.000000 -0.000001 -0.000000 0.723860 -3.093992 26.329747 0.387267 -2.292315 19.175934 0.044324 -0.785456 6.459295 0.000000 0.000004 0.000000 1.074286 -3.717923 32.222865 0.387261 -2.292317 19.175934 0.044336 -0.785473 6.459289 0.000000 -0.000003 -0.000000 -82.648567 -12.600891 48.215996 70.303909 10.303277 -5.275887 32.532130 -1.836605 -10.465773 -0.000649 0.000002 -0.000001 0.000000 -0.000001 0.000000 -18.530633 -0.443339 -18.176325 103.917005 9.788736 -0.664367 24.062340 2.919648 24.169808 31.755062 -0.179785 -3.753021 -0.000003 -0.000001 -0.000001 
